Coordinates
version=1
nRows=10
nColumns=40
inDegrees=yes

Units are S.I. units (second, meters, Newtons, ...)
Angles are in degrees.

endheader
time	pelvis_tilt	pelvis_list	pelvis_rotation	pelvis_tx	pelvis_ty	pelvis_tz	hip_flexion_r	hip_adduction_r	hip_rotation_r	knee_angle_r	knee_angle_r_beta	ankle_angle_r	subtalar_angle_r	mtp_angle_r	hip_flexion_l	hip_adduction_l	hip_rotation_l	knee_angle_l	knee_angle_l_beta	ankle_angle_l	subtalar_angle_l	mtp_angle_l	lumbar_extension	lumbar_bending	lumbar_rotation	arm_flex_r	arm_add_r	arm_rot_r	elbow_flex_r	pro_sup_r	wrist_flex_r	wrist_dev_r	arm_flex_l	arm_add_l	arm_rot_l	elbow_flex_l	pro_sup_l	wrist_flex_l	wrist_dev_l
     56.36500000	     -7.94690620	     -4.29905225	     -4.35614782	      0.89466705	      0.92178406	      0.45204651	     31.46740237	      0.08319938	    -10.89458382	     15.26504097	     15.26504097	      3.78778198	      2.16273389	      7.57585447	      9.33738792	     -5.61243234	     -6.38871228	     19.04144684	     19.04144684	     18.20871160	    -12.75216782	      0.95926540	    -10.62606392	      5.50575444	      1.28254128	    -11.15149882	    -16.22538431	     -4.56055945	     22.87416129	     47.55075740	      0.00000000	      0.00000000	     14.48686667	    -16.08652822	     -9.88444436	     83.19235445	     47.30919159	      0.00000000	      0.00000000
     56.37735714	     -7.94244287	     -4.08467309	     -4.28660294	      0.89690833	      0.92059072	      0.45388429	     30.94984169	     -0.19491400	    -11.01486847	     15.64381574	     15.64381574	      3.44274553	      2.51403717	      6.51689623	      8.58521829	     -5.44318255	     -6.42203278	     18.75543838	     18.75543838	     18.70736647	    -12.49895317	      1.16219450	    -10.46855830	      5.33271100	      1.15402647	    -11.77050339	    -15.95305544	     -5.15142750	     23.61575591	     47.53795334	      0.00000000	      0.00000000	     14.22796819	    -15.99306049	     -9.69773948	     83.34090625	     47.32333440	      0.00000000	      0.00000000
     56.38971429	     -7.93513295	     -3.94875590	     -4.15889406	      0.89936289	      0.91928181	      0.45579101	     30.19460287	     -0.33914719	    -10.98520031	     15.69971512	     15.69971512	      2.06963461	      2.34717747	      2.66017775	      7.95915229	     -5.36905955	     -6.31926864	     18.75784013	     18.75784013	     19.51990434	    -12.28523350	      2.03897590	    -10.27162743	      5.30523146	      1.43198891	    -12.79127613	    -15.50449483	     -6.96445832	     25.01869794	     47.52475405	      0.00000000	      0.00000000	     14.30600416	    -15.66929664	     -9.01577426	     82.74917748	     47.36218557	      0.00000000	      0.00000000
     56.40207143	     -7.94899629	     -3.86833254	     -4.02618495	      0.90181669	      0.91811749	      0.45776144	     29.58461364	     -0.44475539	    -10.91524800	     16.15153232	     16.15153232	      1.99155139	      2.31987091	      2.50657831	      7.35875308	     -5.37130068	     -6.21369809	     18.72970800	     18.72970800	     19.84440177	    -12.25999981	      1.96896442	    -10.04940540	      5.30774935	      1.31259191	    -12.86733788	    -15.20547292	     -6.99129783	     25.00200361	     47.52178075	      0.00000000	      0.00000000	     13.88105361	    -15.38162115	     -8.85795608	     82.52380409	     47.34918607	      0.00000000	      0.00000000
     56.41442857	     -8.02190533	     -3.79566160	     -3.94822076	      0.90422406	      0.91697032	      0.45981390	     29.00455691	     -0.48857634	    -10.79322762	     16.51116131	     16.51116131	      1.94518432	      2.35091500	      2.37668040	      6.85898459	     -5.39247478	     -6.09117364	     18.77756599	     18.77756599	     20.21908822	    -12.31770906	      1.87074022	     -9.78568551	      5.30029064	      1.24586321	    -12.82570061	    -14.94411174	     -6.98917937	     25.03606434	     47.51799873	      0.00000000	      0.00000000	     13.53041248	    -15.10402990	     -8.71728636	     82.32462193	     47.33583184	      0.00000000	      0.00000000
     56.42678571	     -7.95968795	     -3.73458808	     -3.85237178	      0.90671869	      0.91623472	      0.46186657	     28.36998294	     -0.53178947	    -10.70419840	     16.99728590	     16.99728590	      2.06296984	      2.32480420	      2.10045783	      6.27984591	     -5.43145869	     -5.96954031	     18.94588341	     18.94588341	     20.40734649	    -12.39224338	      1.86833458	     -9.67137937	      5.35091800	      1.25313480	    -12.60319585	    -14.61892186	     -6.98036754	     25.13488717	     47.51217522	      0.00000000	      0.00000000	     12.95458617	    -14.68418408	     -8.50723515	     81.93865534	     47.31342219	      0.00000000	      0.00000000
     56.43914286	     -7.85020904	     -3.70096457	     -3.78325651	      0.90907162	      0.91581887	      0.46400840	     27.77643478	     -0.52714211	    -10.59283601	     17.54522809	     17.54522809	      2.28685062	      2.28403421	      1.70466347	      5.74684230	     -5.51571411	     -5.87321464	     19.28013955	     19.28013955	     20.52518866	    -12.59149006	      1.91557229	     -9.71972441	      5.42515691	      1.30202129	    -12.17266032	    -14.33481576	     -6.97564174	     25.29628773	     47.50581022	      0.00000000	      0.00000000	     12.34570984	    -14.22917236	     -8.27694238	     81.37700616	     47.28659978	      0.00000000	      0.00000000
     56.45150000	     -7.76862655	     -3.57012464	     -3.70381463	      0.91110782	      0.91556427	      0.46604068	     27.27917556	     -0.60840455	    -10.49528704	     17.94859206	     17.94859206	      1.30801256	      1.80032455	     -2.15446826	      5.53913214	     -5.43409162	     -5.34401772	     20.12038413	     20.12038413	     21.03057020	    -13.29275394	      3.57179319	     -9.62534860	      5.50886261	      1.76751365	    -11.75640446	    -14.08469656	     -7.61211400	     25.00656718	     47.51559487	      0.00000000	      0.00000000	     13.19036675	    -13.51090287	     -7.84757277	     77.62802354	     47.24450265	      0.00000000	      0.00000000
     56.46385714	     -7.70824512	     -3.66583872	     -3.66963788	      0.91293195	      0.91563860	      0.46848347	     26.84195572	     -0.39684894	    -10.35348402	     18.42217894	     18.42217894	      1.61645718	      1.51842977	     -2.59189815	      5.54649898	     -5.74613639	     -5.20472652	     21.28983116	     21.28983116	     21.00735368	    -13.76886904	      3.52215116	     -9.69805431	      5.69424423	      1.72865335	    -10.95600086	    -13.87439331	     -7.74283179	     25.34514623	     47.50736582	      0.00000000	      0.00000000	     12.52847760	    -13.22239195	     -7.56882317	     76.86271194	     47.21665362	      0.00000000	      0.00000000
     56.47621429	     -7.69543534	     -3.78529490	     -3.65773183	      0.91449972	      0.91598948	      0.47105759	     26.47792274	     -0.11817104	    -10.18348611	     18.81344975	     18.81344975	      1.90325078	      1.13951353	     -2.90906593	      5.81962069	     -6.10857894	     -5.01439037	     22.80302671	     22.80302671	     20.80986888	    -14.42291333	      3.45527919	     -9.70400718	      5.88112607	      1.69909485	     -9.97364374	    -13.67279925	     -7.86229406	     25.65203750	     47.49896019	      0.00000000	      0.00000000	     11.95440824	    -12.84446386	     -7.40250014	     75.48774504	     47.18754413	      0.00000000	      0.00000000
